<svg width="512" height="512" viewBox="0 0 512 512" fill="none" xmlns="http://www.w3.org/2000/svg">
<g clip-path="url(#clip0_673_17115)">
<rect width="512" height="512" rx="256" fill="black"/>
<path fill-rule="evenodd" clip-rule="evenodd" d="M433.159 158.901L333.885 59.7781C327.031 52.9351 314.854 52.0425 306.687 57.7845L81.8966 215.816C73.729 221.557 72.6636 231.759 79.5171 238.602L178.791 337.725C185.645 344.568 197.822 345.462 205.989 339.719L430.779 181.688C438.947 175.946 440.013 165.744 433.159 158.901ZM431.707 267.311L396.693 231.819L218.216 357.293C201.685 368.914 178.018 367.179 163.757 352.939L113.231 302.48L81.8686 324.868C73.7341 330.674 72.6731 340.993 79.4987 347.913L178.37 448.156C185.196 455.078 197.324 455.979 205.458 450.173L429.336 290.356C437.471 284.548 438.531 274.231 431.707 267.311Z" fill="#F4F4F4"/>
</g>
<defs>
<clipPath id="clip0_673_17115">
<rect width="512" height="512" fill="white"/>
</clipPath>
</defs>
</svg>
