<?xml version="1.0" encoding="utf-8"?>
<svg version="1.1" xmlns="http://www.w3.org/2000/svg" xmlns:xlink="http://www.w3.org/1999/xlink" x="0px" y="0px"
	 viewBox="0 0 80 60" style="enable-background:new 0 0 80 60;" xml:space="preserve">
<path class="st0" d="M71.21002,8.78998C65.35999,2.92999,57.67999,0,50,0H1.01001C0.45001,0,0,0.45001,0,1.01001
	C0,1.56,0.44,2,0.98999,2.01996c5.12,0.25,9.75,2.44,13.15002,5.84003C17.76001,11.47998,20,16.47998,20,22v8
	c0,7.67999,2.92999,15.35999,8.78998,21.20996C34.64001,57.07001,42.32001,60,50,60s15.35999-2.92999,21.21002-8.79004
	C77.07001,45.35999,80,37.67999,80,30S77.07001,14.64001,71.21002,8.78998z M64.14001,44.14001c-7.81,7.81-20.47003,7.81-28.28003,0
	c-7.81-7.81006-7.81-20.47003,0-28.28003s20.47003-7.81,28.28003,0S71.95001,36.32996,64.14001,44.14001z" style="fill:#CA41E2;"/>
</svg>
