<svg width="1400" height="560" viewBox="0 0 1400 560" fill="none" xmlns="http://www.w3.org/2000/svg" role="img" aria-labelledby="title desc">
  <title id="title">Обложка проекта OfferGO</title>
  <desc id="desc">OfferGO — AI-платформа для резюме, вакансий, откликов, подписок, browser extension и desktop-помощника на собеседовании.</desc>
  <defs>
    <linearGradient id="bg" x1="0" y1="0" x2="1400" y2="560" gradientUnits="userSpaceOnUse">
      <stop stop-color="#020617"/>
      <stop offset="0.46" stop-color="#07111F"/>
      <stop offset="1" stop-color="#082F49"/>
    </linearGradient>
    <linearGradient id="sky" x1="260" y1="92" x2="1230" y2="497" gradientUnits="userSpaceOnUse">
      <stop stop-color="#38BDF8"/>
      <stop offset="0.5" stop-color="#0EA5E9"/>
      <stop offset="1" stop-color="#22C55E"/>
    </linearGradient>
    <radialGradient id="orbA" cx="0" cy="0" r="1" gradientUnits="userSpaceOnUse" gradientTransform="translate(1090 95) rotate(130) scale(380 310)">
      <stop stop-color="#38BDF8" stop-opacity="0.34"/>
      <stop offset="1" stop-color="#38BDF8" stop-opacity="0"/>
    </radialGradient>
    <radialGradient id="orbB" cx="0" cy="0" r="1" gradientUnits="userSpaceOnUse" gradientTransform="translate(250 510) rotate(-25) scale(450 260)">
      <stop stop-color="#22C55E" stop-opacity="0.22"/>
      <stop offset="1" stop-color="#22C55E" stop-opacity="0"/>
    </radialGradient>
    <pattern id="grid" width="46" height="46" patternUnits="userSpaceOnUse">
      <path d="M46 0H0V46" stroke="white" stroke-opacity="0.045"/>
    </pattern>
    <filter id="softShadow" x="-20%" y="-20%" width="140%" height="140%" color-interpolation-filters="sRGB">
      <feDropShadow dx="0" dy="26" stdDeviation="30" flood-color="#000000" flood-opacity="0.28"/>
    </filter>
  </defs>

  <rect width="1400" height="560" rx="44" fill="url(#bg)"/>
  <rect width="1400" height="560" rx="44" fill="url(#grid)"/>
  <rect width="1400" height="560" rx="44" fill="url(#orbA)"/>
  <rect width="1400" height="560" rx="44" fill="url(#orbB)"/>

  <path d="M76 438C180 311 305 345 426 236C575 101 736 119 884 186C1042 257 1133 219 1272 104" stroke="url(#sky)" stroke-width="3" stroke-linecap="round" opacity="0.78"/>
  <path d="M88 476C238 393 333 418 480 326C612 243 728 277 849 328C993 390 1114 358 1286 260" stroke="#7DD3FC" stroke-width="2" stroke-linecap="round" opacity="0.22"/>

  <g transform="translate(88 72)" filter="url(#softShadow)">
    <rect width="1224" height="416" rx="34" fill="white" fill-opacity="0.065" stroke="white" stroke-opacity="0.14"/>

    <g transform="translate(48 44)">
      <rect width="96" height="66" rx="21" fill="#38BDF8"/>
      <path d="M66 16C82 16 92 27 92 43C92 59 82 66 66 66H50C35 66 27 57 27 43C27 27 37 16 52 16H66Z" fill="#0F172A" fill-opacity="0.9"/>
      <text x="49" y="50" text-anchor="middle" fill="white" font-family="Inter, Segoe UI, Arial, sans-serif" font-size="23" font-weight="900">GO</text>
      <text x="0" y="50" fill="white" font-family="Inter, Segoe UI, Arial, sans-serif" font-size="34" font-style="italic" font-weight="800">offer</text>
    </g>

    <text x="48" y="182" fill="white" font-family="Inter, Segoe UI, Arial, sans-serif" font-size="70" font-weight="850" letter-spacing="-2.2">OfferGO</text>
    <text x="50" y="226" fill="#BAE6FD" font-family="Inter, Segoe UI, Arial, sans-serif" font-size="26" font-weight="650">AI-платформа для резюме, вакансий и собеседований</text>
    <text x="50" y="268" fill="#94A3B8" font-family="Inter, Segoe UI, Arial, sans-serif" font-size="19">Next.js 16 · NestJS 11 · Prisma · shadcn/ui · WPF · Browser Extension · Billing · AdminJS</text>

    <g transform="translate(50 314)" font-family="Inter, Segoe UI, Arial, sans-serif" font-size="15" font-weight="800">
      <g>
        <rect width="138" height="40" rx="20" fill="#020617" stroke="#1E3A8A"/>
        <circle cx="22" cy="20" r="6" fill="#38BDF8"/>
        <text x="38" y="26" fill="#E2E8F0">Резюме</text>
      </g>
      <g transform="translate(154 0)">
        <rect width="136" height="40" rx="20" fill="#020617" stroke="#1E3A8A"/>
        <circle cx="22" cy="20" r="6" fill="#0EA5E9"/>
        <text x="38" y="26" fill="#E2E8F0">Вакансии</text>
      </g>
      <g transform="translate(306 0)">
        <rect width="164" height="40" rx="20" fill="#020617" stroke="#1E3A8A"/>
        <circle cx="22" cy="20" r="6" fill="#22C55E"/>
        <text x="38" y="26" fill="#E2E8F0">Отклики</text>
      </g>
      <g transform="translate(486 0)">
        <rect width="146" height="40" rx="20" fill="#020617" stroke="#1E3A8A"/>
        <circle cx="22" cy="20" r="6" fill="#FACC15"/>
        <text x="38" y="26" fill="#E2E8F0">Live helper</text>
      </g>
    </g>

    <g transform="translate(760 56)">
      <rect width="392" height="304" rx="28" fill="#020617" fill-opacity="0.72" stroke="white" stroke-opacity="0.12"/>
      <rect x="28" y="28" width="150" height="34" rx="17" fill="#0EA5E9" fill-opacity="0.18" stroke="#38BDF8" stroke-opacity="0.5"/>
      <text x="48" y="51" fill="#BAE6FD" font-family="Inter, Segoe UI, Arial, sans-serif" font-size="14" font-weight="800">Продуктовый контур</text>

      <g transform="translate(30 92)" font-family="Inter, Segoe UI, Arial, sans-serif">
        <g>
          <rect width="332" height="48" rx="16" fill="white" fill-opacity="0.06"/>
          <circle cx="26" cy="24" r="9" fill="#38BDF8"/>
          <text x="48" y="21" fill="white" font-size="15" font-weight="800">Конструктор резюме</text>
          <text x="48" y="39" fill="#94A3B8" font-size="12">фото · export · print mode</text>
        </g>
        <g transform="translate(0 62)">
          <rect width="332" height="48" rx="16" fill="white" fill-opacity="0.06"/>
          <circle cx="26" cy="24" r="9" fill="#22C55E"/>
          <text x="48" y="21" fill="white" font-size="15" font-weight="800">AI-отклики</text>
          <text x="48" y="39" fill="#94A3B8" font-size="12">индивидуальные и автоотклики</text>
        </g>
        <g transform="translate(0 124)">
          <rect width="332" height="48" rx="16" fill="white" fill-opacity="0.06"/>
          <circle cx="26" cy="24" r="9" fill="#FACC15"/>
          <text x="48" y="21" fill="white" font-size="15" font-weight="800">Помощник на собеседовании</text>
          <text x="48" y="39" fill="#94A3B8" font-size="12">desktop live mode и скриншоты</text>
        </g>
      </g>

      <path d="M282 42L338 98L282 154" stroke="#38BDF8" stroke-width="12" stroke-linecap="round" stroke-linejoin="round" opacity="0.88"/>
      <path d="M282 170L338 226L282 282" stroke="#22C55E" stroke-width="12" stroke-linecap="round" stroke-linejoin="round" opacity="0.58"/>
    </g>
  </g>
</svg>
